<mxfile host="65bd71144e">
    <diagram id="i0APVUAhu0ABX1FMYFlQ" name="Page-1">
        <mxGraphModel dx="1038" dy="785" grid="1" gridSize="10" guides="1" tooltips="1" connect="1" arrows="1" fold="1" page="1" pageScale="1" pageWidth="827" pageHeight="1169" math="0" shadow="0">
            <root>
                <mxCell id="0"/>
                <mxCell id="1" parent="0"/>
                <mxCell id="2" value="Linode" style="swimlane;labelPosition=left;verticalLabelPosition=top;align=right;verticalAlign=bottom;" vertex="1" parent="1">
                    <mxGeometry x="160" y="160" width="400" height="590" as="geometry"/>
                </mxCell>
                <mxCell id="3" value="instance (Ubuntu)" style="swimlane;" vertex="1" parent="2">
                    <mxGeometry x="40" y="60" width="320" height="300" as="geometry"/>
                </mxCell>
                <mxCell id="16" value="" style="endArrow=classic;startArrow=classic;html=1;entryX=0.513;entryY=1;entryDx=0;entryDy=0;entryPerimeter=0;" edge="1" parent="3" target="30">
                    <mxGeometry width="50" height="50" relative="1" as="geometry">
                        <mxPoint x="110" y="230" as="sourcePoint"/>
                        <mxPoint x="210" y="150" as="targetPoint"/>
                        <Array as="points">
                            <mxPoint x="244" y="230"/>
                        </Array>
                    </mxGeometry>
                </mxCell>
                <mxCell id="17" value="" style="endArrow=classic;html=1;entryX=0.513;entryY=-0.033;entryDx=0;entryDy=0;entryPerimeter=0;" edge="1" parent="3" target="30">
                    <mxGeometry width="50" height="50" relative="1" as="geometry">
                        <mxPoint x="110" y="110" as="sourcePoint"/>
                        <mxPoint x="230" y="60" as="targetPoint"/>
                        <Array as="points">
                            <mxPoint x="244" y="110"/>
                        </Array>
                    </mxGeometry>
                </mxCell>
                <mxCell id="30" value="PostGIS" style="sketch=0;html=1;aspect=fixed;strokeColor=none;shadow=0;align=center;verticalAlign=middle;fillColor=#3B8DF1;shape=mxgraph.gcp2.database_2;fontColor=#000000;labelPosition=center;verticalLabelPosition=middle;" vertex="1" parent="3">
                    <mxGeometry x="220" y="140" width="46.8" height="60" as="geometry"/>
                </mxCell>
                <mxCell id="31" value="Batch" style="sketch=0;html=1;aspect=fixed;strokeColor=none;shadow=0;align=center;verticalAlign=bottom;fillColor=#3B8DF1;shape=mxgraph.gcp2.service;fontColor=#000000;labelPosition=center;verticalLabelPosition=top;" vertex="1" parent="3">
                    <mxGeometry x="60" y="70" width="49" height="70" as="geometry"/>
                </mxCell>
                <mxCell id="32" value="API" style="sketch=0;html=1;aspect=fixed;strokeColor=none;shadow=0;align=center;verticalAlign=bottom;fillColor=#3B8DF1;shape=mxgraph.gcp2.service;fontColor=#000000;labelPosition=center;verticalLabelPosition=top;" vertex="1" parent="3">
                    <mxGeometry x="60" y="190" width="49" height="70" as="geometry"/>
                </mxCell>
                <mxCell id="4" value="instance (Ubuntu)" style="swimlane;" vertex="1" parent="2">
                    <mxGeometry x="40" y="400" width="320" height="150" as="geometry"/>
                </mxCell>
                <mxCell id="28" value="Grafana" style="sketch=0;html=1;aspect=fixed;strokeColor=none;shadow=0;align=center;verticalAlign=top;fillColor=#3B8DF1;shape=mxgraph.gcp2.monitor;fontColor=#000000;labelPosition=center;verticalLabelPosition=bottom;" vertex="1" parent="4">
                    <mxGeometry x="200" y="67.5" width="61.76" height="52.5" as="geometry"/>
                </mxCell>
                <mxCell id="29" value="Prometheus" style="sketch=0;html=1;aspect=fixed;strokeColor=none;shadow=0;align=center;verticalAlign=top;fillColor=#3B8DF1;shape=mxgraph.gcp2.cloud_monitoring;fontColor=#000000;labelPosition=center;verticalLabelPosition=bottom;" vertex="1" parent="4">
                    <mxGeometry x="60" y="60" width="54" height="60" as="geometry"/>
                </mxCell>
                <mxCell id="34" value="" style="endArrow=none;html=1;fontColor=#000000;entryX=0;entryY=0.41;entryDx=0;entryDy=0;entryPerimeter=0;exitX=0.981;exitY=0.483;exitDx=0;exitDy=0;exitPerimeter=0;" edge="1" parent="4" source="29" target="28">
                    <mxGeometry width="50" height="50" relative="1" as="geometry">
                        <mxPoint x="120" y="89" as="sourcePoint"/>
                        <mxPoint x="240" y="-120" as="targetPoint"/>
                    </mxGeometry>
                </mxCell>
                <mxCell id="33" value="" style="endArrow=none;html=1;fontColor=#000000;exitX=0.5;exitY=0.017;exitDx=0;exitDy=0;exitPerimeter=0;" edge="1" parent="2" source="29">
                    <mxGeometry width="50" height="50" relative="1" as="geometry">
                        <mxPoint x="230" y="330" as="sourcePoint"/>
                        <mxPoint x="127" y="360" as="targetPoint"/>
                    </mxGeometry>
                </mxCell>
                <mxCell id="13" value="ワイ" style="shape=umlActor;verticalLabelPosition=top;verticalAlign=bottom;html=1;outlineConnect=0;labelPosition=center;align=center;" vertex="1" parent="1">
                    <mxGeometry x="40" y="50" width="30" height="60" as="geometry"/>
                </mxCell>
                <mxCell id="19" value="" style="endArrow=classic;html=1;" edge="1" parent="1" source="26" target="3">
                    <mxGeometry width="50" height="50" relative="1" as="geometry">
                        <mxPoint x="310" y="120" as="sourcePoint"/>
                        <mxPoint x="440" y="380" as="targetPoint"/>
                    </mxGeometry>
                </mxCell>
                <mxCell id="20" value="Deploy" style="edgeLabel;html=1;align=center;verticalAlign=middle;resizable=0;points=[];" vertex="1" connectable="0" parent="19">
                    <mxGeometry x="-0.5461" y="-2" relative="1" as="geometry">
                        <mxPoint x="2" y="-5" as="offset"/>
                    </mxGeometry>
                </mxCell>
                <mxCell id="21" value="" style="endArrow=none;html=1;startArrow=none;entryX=0;entryY=0.5;entryDx=0;entryDy=0;" edge="1" parent="1" source="24" target="26">
                    <mxGeometry width="50" height="50" relative="1" as="geometry">
                        <mxPoint x="220" y="80" as="sourcePoint"/>
                        <mxPoint x="290" y="50" as="targetPoint"/>
                    </mxGeometry>
                </mxCell>
                <mxCell id="23" value="Git Push" style="endArrow=classic;html=1;entryX=0;entryY=0.5;entryDx=0;entryDy=0;entryPerimeter=0;" edge="1" parent="1" source="13">
                    <mxGeometry width="50" height="50" relative="1" as="geometry">
                        <mxPoint x="390" y="430" as="sourcePoint"/>
                        <mxPoint x="170" y="80" as="targetPoint"/>
                    </mxGeometry>
                </mxCell>
                <mxCell id="24" value="GitHub" style="dashed=0;outlineConnect=0;html=1;align=center;labelPosition=center;verticalLabelPosition=top;verticalAlign=bottom;shape=mxgraph.weblogos.github" vertex="1" parent="1">
                    <mxGeometry x="170" y="42.5" width="75" height="75" as="geometry"/>
                </mxCell>
                <mxCell id="26" value="&lt;font color=&quot;#000000&quot;&gt;CicleCI&lt;/font&gt;" style="aspect=fixed;perimeter=ellipsePerimeter;html=1;align=center;shadow=0;dashed=0;fontColor=#4277BB;labelBackgroundColor=#ffffff;fontSize=12;spacingTop=3;image;image=img/lib/ibm/devops/build_test.svg;labelPosition=center;verticalLabelPosition=top;verticalAlign=bottom;" vertex="1" parent="1">
                    <mxGeometry x="330" y="50" width="60" height="60" as="geometry"/>
                </mxCell>
                <mxCell id="35" value="www" style="sketch=0;html=1;aspect=fixed;strokeColor=none;shadow=0;align=center;verticalAlign=bottom;fillColor=#3B8DF1;shape=mxgraph.gcp2.network;fontColor=#000000;labelPosition=center;verticalLabelPosition=top;" vertex="1" parent="1">
                    <mxGeometry x="40" y="420" width="50" height="50" as="geometry"/>
                </mxCell>
                <mxCell id="36" value="" style="endArrow=classic;startArrow=classic;html=1;fontColor=#000000;entryX=1.1;entryY=0.5;entryDx=0;entryDy=0;entryPerimeter=0;" edge="1" parent="1" target="35">
                    <mxGeometry width="50" height="50" relative="1" as="geometry">
                        <mxPoint x="250" y="445" as="sourcePoint"/>
                        <mxPoint x="440" y="340" as="targetPoint"/>
                    </mxGeometry>
                </mxCell>
            </root>
        </mxGraphModel>
    </diagram>
</mxfile>